<?xml version="1.0" encoding="UTF-8" standalone="no"?>
<!-- Created with Inkscape (http://www.inkscape.org/) -->

<svg
   width="1019.5356mm"
   height="166.5199mm"
   viewBox="0 0 1019.5356 166.5199"
   version="1.1"
   id="svg5"
   xml:space="preserve"
   xmlns="http://www.w3.org/2000/svg"
   xmlns:svg="http://www.w3.org/2000/svg"><defs
     id="defs2" /><g
     id="layer5"
     transform="translate(358.72526,930.08555)"><g
       id="g3498"
       transform="translate(-350.72237,-922.08596)"><g
         id="g3496"
         transform="translate(-117.61715,-75.423042)"
         style="fill:#ffffff"><path
           d="m 353.89794,141.80851 q 1.83588,-2.69981 4.85966,-4.85967 3.02378,-2.26784 6.91152,-3.56374 3.88773,-1.29591 8.5314,-1.29591 7.77546,0 14.03903,3.77973 6.26355,3.77974 9.9353,10.69126 3.67175,6.80352 3.67175,16.09087 0,9.17937 -3.67175,16.19888 -3.67175,6.91151 -9.9353,10.90723 -6.26357,3.88773 -14.03903,3.88773 -4.75166,0 -8.74739,-1.29591 -3.88772,-1.40391 -6.80352,-3.56375 -2.91579,-2.15985 -4.75167,-4.75167 v 8.6394 h -13.60705 v -79.91442 h 13.60705 z m 34.23362,20.84254 q 0,-6.15557 -2.48384,-10.25928 -2.48382,-4.21171 -6.37155,-6.37155 -3.88773,-2.15986 -8.31542,-2.15986 -4.3197,0 -8.31542,2.26785 -3.88773,2.15984 -6.37155,6.37155 -2.37584,4.2117 -2.37584,10.25928 0,6.04758 2.37584,10.36728 2.48382,4.3197 6.37155,6.58754 3.99572,2.15985 8.31542,2.15985 4.42769,0 8.31542,-2.26784 3.88773,-2.26785 6.37155,-6.58754 2.48384,-4.3197 2.48384,-10.36728 z"
           style="font-size:97.1223px;line-height:1.25;font-family:'Poppins Variable';-inkscape-font-specification:'Poppins Variable, @wght=543';font-variation-settings:'wght' 543;fill:#ffffff;stroke-width:0.264582"
           id="path3466" /><path
           d="m 411.80941,192.67296 v -59.61184 h 13.60705 v 59.61184 z m 6.91151,-67.17131 q -3.67175,0 -6.15557,-2.37584 -2.37583,-2.48382 -2.37583,-5.93959 0,-3.56374 2.37583,-5.93957 2.48382,-2.37584 6.15557,-2.37584 3.56375,0 5.93959,2.37584 2.48382,2.37583 2.48382,5.93957 0,3.45577 -2.48382,5.93959 -2.37584,2.37584 -5.93959,2.37584 z"
           style="font-size:97.1223px;line-height:1.25;font-family:'Poppins Variable';-inkscape-font-specification:'Poppins Variable, @wght=543';font-variation-settings:'wght' 543;fill:#ffffff;stroke-width:0.264582"
           id="path3468" /><path
           d="m 454.57447,141.70051 q 1.83587,-2.48382 4.75166,-4.64367 2.9158,-2.26784 6.80352,-3.56375 3.99573,-1.4039 8.7474,-1.4039 7.77545,0 14.03902,3.77973 6.26356,3.77974 9.9353,10.69126 3.67175,6.80352 3.67175,16.09087 0,9.17937 -3.67175,16.19888 -3.67174,6.91151 -9.9353,10.90723 -6.26357,3.88773 -14.03902,3.88773 -4.75167,0 -8.7474,-1.4039 -3.88772,-1.5119 -6.80352,-3.67175 -2.91579,-2.15984 -4.75166,-4.53568 v 37.04141 h -13.60705 v -88.01385 h 13.60705 z m 34.23361,20.95054 q 0,-6.15557 -2.48384,-10.25928 -2.48382,-4.21171 -6.37155,-6.37155 -3.88773,-2.15986 -8.31542,-2.15986 -4.31969,0 -8.31542,2.26785 -3.88773,2.15984 -6.37155,6.37155 -2.37583,4.2117 -2.37583,10.25928 0,6.04758 2.37583,10.36728 2.48382,4.3197 6.37155,6.58754 3.99573,2.15985 8.31542,2.15985 4.42769,0 8.31542,-2.26784 3.88773,-2.26785 6.37155,-6.58754 2.48384,-4.3197 2.48384,-10.36728 z"
           style="font-size:97.1223px;line-height:1.25;font-family:'Poppins Variable';-inkscape-font-specification:'Poppins Variable, @wght=543';font-variation-settings:'wght' 543;fill:#ffffff;stroke-width:0.264582"
           id="path3470" /><path
           d="m 509.01374,162.65105 q 0,-9.28735 3.67175,-16.09087 3.77973,-6.91152 10.04329,-10.69126 6.37156,-3.77973 14.03902,-3.77973 4.96766,0 8.85539,1.4039 3.88772,1.29591 6.69553,3.45575 2.91579,2.15986 4.75166,4.64368 v -8.5314 h 13.60705 v 59.61184 h -13.60705 v -8.7474 q -1.83587,2.59183 -4.85965,4.75167 -2.9158,2.15985 -6.80353,3.56376 -3.88773,1.4039 -8.74739,1.4039 -7.66747,0 -14.03902,-3.88773 -6.26357,-3.99572 -9.9353,-10.90723 -3.67175,-7.01951 -3.67175,-16.19888 z m 48.05664,0.10797 q 0,-6.04758 -2.48382,-10.25929 -2.48382,-4.2117 -6.37156,-6.37154 -3.77973,-2.26785 -8.20742,-2.26785 -4.3197,0 -8.31542,2.15986 -3.88773,2.15984 -6.37155,6.37154 -2.37585,4.10372 -2.37585,10.25929 0,6.04758 2.37585,10.36727 2.48382,4.3197 6.37155,6.58754 3.99572,2.26785 8.31542,2.26785 4.42769,0 8.20742,-2.15986 3.88774,-2.26783 6.37156,-6.58754 2.48382,-4.31969 2.48382,-10.36727 z"
           style="font-size:97.1223px;line-height:1.25;font-family:'Poppins Variable';-inkscape-font-specification:'Poppins Variable, @wght=543';font-variation-settings:'wght' 543;fill:#ffffff;stroke-width:0.264582"
           id="path3472" /><path
           d="m 597.54662,162.0031 -3.88773,-4.53569 q 0,-5.18363 1.4039,-9.82731 1.40391,-4.64368 4.10372,-8.09943 2.8078,-3.56376 6.91152,-5.50762 4.10371,-1.94386 9.50333,-1.94386 v 14.14701 h -3.56375 q -3.34777,0 -6.04758,0.75595 -2.6998,0.75594 -4.64367,2.59181 -1.83587,1.72789 -2.8078,4.85967 -0.97194,3.02378 -0.97194,7.55947 z m -13.60704,30.66986 v -59.61184 h 13.60704 v 59.61184 z"
           style="font-size:97.1223px;line-height:1.25;font-family:'Poppins Variable';-inkscape-font-specification:'Poppins Variable, @wght=543';font-variation-settings:'wght' 543;fill:#ffffff;stroke-width:0.264582"
           id="path3474" /><path
           d="m 630.82912,175.28617 v -57.02001 h 13.60705 v 57.02001 q 0,3.23978 1.40391,4.64368 1.51189,1.4039 5.29162,1.4039 h 7.34349 v 11.33921 h -9.61132 q -5.50762,0 -9.61133,-1.6199 -3.99572,-1.72787 -6.26356,-5.5076 -2.15986,-3.88774 -2.15986,-10.25929 z m 27.64607,-31.20983 h -34.66558 v -11.01522 h 34.66558 z"
           style="font-size:97.1223px;line-height:1.25;font-family:'Poppins Variable';-inkscape-font-specification:'Poppins Variable, @wght=543';font-variation-settings:'wght' 543;fill:#ffffff;stroke-width:0.264582"
           id="path3476" /><path
           d="m 670.71031,192.67296 v -59.61184 h 13.60705 v 59.61184 z m 6.91152,-67.17131 q -3.67174,0 -6.15557,-2.37584 -2.37583,-2.48382 -2.37583,-5.93959 0,-3.56374 2.37583,-5.93957 2.48383,-2.37584 6.15557,-2.37584 3.56376,0 5.93959,2.37584 2.48382,2.37583 2.48382,5.93957 0,3.45577 -2.48382,5.93959 -2.37583,2.37584 -5.93959,2.37584 z"
           style="font-size:97.1223px;line-height:1.25;font-family:'Poppins Variable';-inkscape-font-specification:'Poppins Variable, @wght=543';font-variation-settings:'wght' 543;fill:#ffffff;stroke-width:0.264582"
           id="path3478" /><path
           d="m 702.02819,175.28617 v -57.02001 h 13.60705 v 57.02001 q 0,3.23978 1.40391,4.64368 1.51189,1.4039 5.29162,1.4039 h 7.3435 v 11.33921 h -9.61133 q -5.50762,0 -9.61133,-1.6199 -3.99572,-1.72787 -6.26356,-5.5076 -2.15986,-3.88774 -2.15986,-10.25929 z m 27.64608,-31.20983 h -34.66559 v -11.01522 h 34.66559 z"
           style="font-size:97.1223px;line-height:1.25;font-family:'Poppins Variable';-inkscape-font-specification:'Poppins Variable, @wght=543';font-variation-settings:'wght' 543;fill:#ffffff;stroke-width:0.264582"
           id="path3480" /><path
           d="m 748.57289,167.40272 v -10.0433 h 33.26168 q -0.10797,-3.23977 -1.4039,-5.8316 -1.18793,-2.59181 -3.34778,-4.42768 -2.05185,-1.83587 -4.85966,-2.80781 -2.8078,-0.97193 -6.04758,-0.97193 -4.42768,0 -7.99144,2.15985 -3.45575,2.05186 -5.50762,5.93959 -2.05185,3.77973 -2.05185,9.17936 v 4.85966 q 0,5.29162 2.05185,9.07136 2.15986,3.77973 5.72361,5.8316 3.67175,1.94386 8.09943,1.94386 5.39962,0 8.42342,-2.26784 3.13178,-2.26785 4.75166,-5.50762 h 14.57899 q -1.61989,5.29164 -5.39962,9.61133 -3.67175,4.3197 -9.28736,6.91151 -5.50761,2.59183 -12.85111,2.59183 -8.63939,0 -15.44291,-3.77974 -6.69554,-3.77973 -10.58326,-10.69125 -3.88773,-7.01951 -3.88773,-16.41486 0,-9.39534 3.77974,-16.19886 3.88772,-6.91152 10.58325,-10.69126 6.69554,-3.77973 15.55091,-3.77973 8.53142,0 15.01096,3.67174 6.58754,3.67175 10.36727,10.25929 3.77974,6.58754 3.77974,15.44291 0,1.5119 -0.10797,3.02379 -0.10797,1.40391 -0.32397,2.9158 z"
           style="font-size:97.1223px;line-height:1.25;font-family:'Poppins Variable';-inkscape-font-specification:'Poppins Variable, @wght=543';font-variation-settings:'wght' 543;fill:#ffffff;stroke-width:0.264582"
           id="path3482" /><path
           d="m 792.2815,209.73576 v -12.74311 h 61.5557 v 12.74311 z"
           style="font-size:97.1223px;line-height:1.25;font-family:'Poppins Variable';-inkscape-font-specification:'Poppins Variable, @wght=543';font-variation-settings:'wght' 543;fill:#ffffff;stroke-width:0.264582"
           id="path3484" /><path
           d="m 864.9617,192.67296 v -79.91442 h 13.60705 v 79.91442 z"
           style="font-size:97.1223px;line-height:1.25;font-family:'Poppins Variable';-inkscape-font-specification:'Poppins Variable, @wght=543';font-variation-settings:'wght' 543;fill:#ffffff;stroke-width:0.264582"
           id="path3486" /><path
           d="m 900.71835,167.40272 v -10.0433 h 33.26168 q -0.10797,-3.23977 -1.4039,-5.8316 -1.18791,-2.59181 -3.34776,-4.42768 -2.05186,-1.83587 -4.85966,-2.80781 -2.80781,-0.97193 -6.04758,-0.97193 -4.4277,0 -7.99144,2.15985 -3.45576,2.05186 -5.50762,5.93959 -2.05185,3.77973 -2.05185,9.17936 v 4.85966 q 0,5.29162 2.05185,9.07136 2.15985,3.77973 5.7236,5.8316 3.67174,1.94386 8.09944,1.94386 5.39962,0 8.4234,-2.26784 3.13179,-2.26785 4.75168,-5.50762 h 14.57898 q -1.61989,5.29164 -5.39963,9.61133 -3.67174,4.3197 -9.28735,6.91151 -5.50761,2.59183 -12.8511,2.59183 -8.63939,0 -15.44292,-3.77974 -6.69553,-3.77973 -10.58326,-10.69125 -3.88773,-7.01951 -3.88773,-16.41486 0,-9.39534 3.77973,-16.19886 3.88774,-6.91152 10.58327,-10.69126 6.69553,-3.77973 15.55091,-3.77973 8.5314,0 15.01095,3.67174 6.58754,3.67175 10.36728,10.25929 3.77973,6.58754 3.77973,15.44291 0,1.5119 -0.10796,3.02379 -0.10797,1.40391 -0.32399,2.9158 z"
           style="font-size:97.1223px;line-height:1.25;font-family:'Poppins Variable';-inkscape-font-specification:'Poppins Variable, @wght=543';font-variation-settings:'wght' 543;fill:#ffffff;stroke-width:0.264582"
           id="path3488" /><path
           d="m 955.57857,162.65105 q 0,-9.28735 3.67174,-16.09087 3.77974,-6.91152 10.0433,-10.69126 6.37156,-3.77973 14.03902,-3.77973 4.96766,0 8.85538,1.4039 3.88774,1.29591 6.69553,3.45575 2.91576,2.15986 4.75166,4.64368 v -8.5314 h 13.6071 v 59.61184 h -13.6071 v -8.7474 q -1.8359,2.59183 -4.85965,4.75167 -2.91579,2.15985 -6.80352,3.56376 -3.88773,1.4039 -8.74739,1.4039 -7.66746,0 -14.03902,-3.88773 -6.26356,-3.99572 -9.93531,-10.90723 -3.67174,-7.01951 -3.67174,-16.19888 z m 48.05663,0.10797 q 0,-6.04758 -2.4838,-10.25929 -2.48384,-4.2117 -6.37156,-6.37154 -3.77974,-2.26785 -8.20743,-2.26785 -4.3197,0 -8.31542,2.15986 -3.88773,2.15984 -6.37156,6.37154 -2.37583,4.10372 -2.37583,10.25929 0,6.04758 2.37583,10.36727 2.48383,4.3197 6.37156,6.58754 3.99572,2.26785 8.31542,2.26785 4.42769,0 8.20743,-2.15986 3.88772,-2.26783 6.37156,-6.58754 2.4838,-4.31969 2.4838,-10.36727 z"
           style="font-size:97.1223px;line-height:1.25;font-family:'Poppins Variable';-inkscape-font-specification:'Poppins Variable, @wght=543';font-variation-settings:'wght' 543;fill:#ffffff;stroke-width:0.264582"
           id="path3490" /><path
           d="m 1044.6998,162.0031 -3.8878,-4.53569 q 0,-5.18363 1.4039,-9.82731 1.404,-4.64368 4.1037,-8.09943 2.8078,-3.56376 6.9116,-5.50762 4.1037,-1.94386 9.5033,-1.94386 v 14.14701 h -3.5637 q -3.3478,0 -6.0477,0.75595 -2.6997,0.75594 -4.6436,2.59181 -1.8359,1.72789 -2.8078,4.85967 -0.9719,3.02378 -0.9719,7.55947 z m -13.6071,30.66986 v -59.61184 h 13.6071 v 59.61184 z"
           style="font-size:97.1223px;line-height:1.25;font-family:'Poppins Variable';-inkscape-font-specification:'Poppins Variable, @wght=543';font-variation-settings:'wght' 543;fill:#ffffff;stroke-width:0.264582"
           id="path3492" /><path
           d="m 1073.5338,192.67296 v -59.61184 h 13.607 v 59.61184 z m 42.1171,0 v -33.15369 q 0,-7.77545 -3.8878,-11.77118 -3.8877,-3.99572 -10.3673,-3.99572 -4.3197,0 -7.5594,1.83588 -3.1319,1.72787 -4.9677,5.18363 -1.7279,3.45576 -1.7279,8.74739 l -3.1318,-13.71504 q 1.4039,-4.10372 4.4277,-7.23549 3.1318,-3.13179 7.3436,-4.75167 4.2116,-1.72788 9.1793,-1.72788 7.0195,0 12.4191,2.91579 5.5077,2.91579 8.6394,8.6394 3.1317,5.61561 3.1317,13.93102 v 35.09756 z"
           style="font-size:97.1223px;line-height:1.25;font-family:'Poppins Variable';-inkscape-font-specification:'Poppins Variable, @wght=543';font-variation-settings:'wght' 543;fill:#ffffff;stroke-width:0.264582"
           id="path3494" /></g></g><path
       id="path3448"
       style="color:#000000;display:inline;fill:#ffffff;-inkscape-stroke:none"
       d="m -257.45628,-922.08571 c -10.06086,0.0481 -19.41947,6.74708 -22.27202,16.84962 -3.4446,12.19929 3.79198,25.13039 15.99127,28.575 4.40907,1.24495 8.91342,1.09413 13.03124,-0.18138 l 10.31152,10.42572 v 5.1e-4 c -0.15016,0.75064 -0.23203,1.52218 -0.23203,2.30839 v 3.0949 c -2.99548,0.0488 -6.22969,0.006 -9.61491,-0.18293 -14.08069,-0.78625 -30.22678,-4.22626 -41.88789,-13.27051 1.20752,-1.9039 2.16256,-4.00438 2.80242,-6.27042 3.59149,-12.71955 -3.95432,-26.20306 -16.67392,-29.79457 -12.71949,-3.5915 -26.20307,3.95385 -29.79457,16.67341 -3.59149,12.71954 3.95433,26.20305 16.67392,29.79456 6.17615,1.7439 12.53208,0.86186 17.84853,-1.96319 14.80353,12.45088 34.32503,16.21756 50.34576,17.11214 3.61631,0.20193 7.07894,0.24877 10.30066,0.19895 v 2.69338 c 0,6.65604 5.65691,12.31242 12.31295,12.31242 h 18.08365 c 6.65603,0 12.31242,-5.65638 12.31242,-12.31242 v -18.08572 c 0,-6.65604 -5.65639,-12.31243 -12.31242,-12.31243 h -18.08365 c -0.71228,0 -1.41232,0.0684 -2.096,0.19224 l -8.62221,-8.71833 c 1.72537,-2.24493 3.05981,-4.83832 3.86953,-7.70599 3.4446,-12.1993 -3.79199,-25.1304 -15.99127,-28.575 -2.09676,-0.59205 -4.21487,-0.86833 -6.30298,-0.85835 z m -70.13525,65.39239 c -10.06086,0.0481 -19.41946,6.74709 -22.27203,16.84962 -3.4446,12.1993 3.79199,25.1304 15.99127,28.575 6.71835,1.897 13.65808,0.55359 19.11357,-3.0732 l 9.97303,10.08466 c -0.1483,0.74612 -0.22893,1.51273 -0.22893,2.29392 v 18.08416 c 0,6.65604 5.65643,12.31243 12.31243,12.31243 h 18.08417 c 6.65599,0 12.31243,-5.65639 12.31243,-12.31243 v -18.08416 c 0,-6.65605 -5.65644,-12.31243 -12.31243,-12.31243 h -18.08417 c -0.71667,0 -1.42071,0.069 -2.1084,0.1943 l -11.12645,-11.25047 c 0.23921,-0.62786 0.45407,-1.27045 0.63975,-1.92805 0.41005,-1.45221 0.66696,-2.91457 0.78394,-4.37028 16.29754,0.41017 38.22709,3.57838 52.45933,16.0445 -0.41759,1.2319 -0.64803,2.54038 -0.64803,3.8902 v 19.82412 c 0,6.80331 5.77473,12.57804 12.57805,12.57804 h 19.82411 c 6.80331,0 12.57804,-5.77473 12.57804,-12.57804 v -19.82412 c 0,-6.8033 -5.77473,-12.58011 -12.57804,-12.58011 H -240.124 c -0.96703,0 -1.91228,0.12025 -2.82412,0.34003 -18.83369,-17.33958 -45.77953,-20.64714 -64.27773,-20.52639 -2.87721,-5.36205 -7.8197,-9.60966 -14.06271,-11.37243 -2.09675,-0.59205 -4.21487,-0.86885 -6.30297,-0.85887 z" /><g
       id="g3540"
       transform="translate(373.69734,-94.526074)"><g
         id="g3504"
         transform="translate(330.19783,-144.74091)"><g
           id="g3502"
           transform="translate(-1172.2347,-758.24205)"
           style="font-variation-settings:normal;opacity:1;vector-effect:none;fill:#ffffff;fill-opacity:1;stroke:none;stroke-width:0.264583px;stroke-linecap:butt;stroke-linejoin:miter;stroke-miterlimit:4;stroke-dasharray:none;stroke-dashoffset:0;stroke-opacity:1;-inkscape-stroke:none;stop-color:#000000;stop-opacity:1"><path
             id="path3500"
             style="fill:#ffffff;stroke:none;stroke-width:0.264583px;stroke-linecap:butt;stroke-linejoin:miter;stroke-opacity:1"
             d="m 308.22639,-1286.3784 c -13.56075,0.065 -26.09482,9.0875 -29.93164,22.6758 -0.0196,0.07 -0.0219,0.1395 -0.041,0.209 -4.05397,-5.1439 -9.64324,-9.1335 -16.35742,-11.0293 -16.97834,-4.794 -34.87365,5.2179 -39.66797,22.1973 -3.36879,11.9308 0.67747,24.2154 9.21094,32.1875 -10.82989,2.4457 -20.08377,10.511 -23.2793,21.8281 -4.64709,16.458 5.05738,33.8001 21.51563,38.4472 6.73788,1.9026 13.60863,1.3772 19.69922,-1.0019 l 3.33203,3.3691 v 17.3243 c 0,11.0468 9.26576,20.3125 20.3125,20.3125 h 18.08398 c 9.05798,0 16.82658,-6.2664 19.36328,-14.5997 3.79116,4.1699 9.18048,6.8711 15.13086,6.8711 h 19.82422 c 11.18742,0 20.57813,-9.3872 20.57813,-20.5761 v -19.8243 c 0,-5.6213 -2.3732,-10.7842 -6.15039,-14.5351 9.01672,-2.0498 15.95508,-10.241 15.95508,-19.793 v -18.0859 c 0,-11.0468 -9.26569,-20.3125 -20.3125,-20.3125 h -17.0293 l -1.83789,-1.8594 c 0.61067,-1.3598 1.21894,-2.7245 1.63476,-4.1973 4.64737,-16.4589 -5.05863,-33.8018 -21.51757,-38.4492 -2.83373,-0.8 -5.69262,-1.1717 -8.51563,-1.1582 z"
             transform="translate(-97.382642,1353.8022)" /></g></g><g
         id="g3508"
         transform="translate(-842.03687,-902.98293)"><path
           id="path3506"
           style="color:#000000;fill:#000000;-inkscape-stroke:none"
           d="m 210.88325,75.423303 c -10.06086,0.04811 -19.41947,6.747078 -22.27202,16.849618 -3.4446,12.199289 3.79198,25.130389 15.99127,28.574999 4.40907,1.24495 8.91342,1.09413 13.03124,-0.18138 l 10.31152,10.42572 v 5.1e-4 c -0.15016,0.75064 -0.23203,1.52218 -0.23203,2.30839 v 3.0949 c -2.99548,0.0488 -6.22969,0.006 -9.61491,-0.18293 -14.08069,-0.78625 -30.22678,-4.22626 -41.88789,-13.27051 1.20752,-1.9039 2.16256,-4.00438 2.80242,-6.27042 3.59149,-12.71955 -3.95432,-26.203056 -16.67392,-29.794563 -12.71949,-3.591508 -26.20307,3.953846 -29.79457,16.673403 -3.59149,12.71954 3.95433,26.20305 16.67392,29.79456 6.17615,1.7439 12.53208,0.86186 17.84853,-1.96319 14.80353,12.45088 34.32503,16.21756 50.34576,17.11214 3.61631,0.20193 7.07894,0.24877 10.30066,0.19895 v 2.69338 c 0,6.65604 5.65691,12.31242 12.31295,12.31242 h 18.08365 c 6.65603,0 12.31242,-5.65638 12.31242,-12.31242 v -18.08572 c 0,-6.65604 -5.65639,-12.31243 -12.31242,-12.31243 h -18.08365 c -0.71228,0 -1.41232,0.0684 -2.096,0.19224 l -8.62221,-8.71833 c 1.72537,-2.24493 3.05981,-4.83832 3.86953,-7.70599 3.4446,-12.199293 -3.79199,-25.130395 -15.99127,-28.575001 -2.09676,-0.592042 -4.21487,-0.86833 -6.30298,-0.858346 z M 140.748,140.81569 c -10.06086,0.0481 -19.41946,6.74709 -22.27203,16.84962 -3.4446,12.1993 3.79199,25.1304 15.99127,28.575 6.71835,1.897 13.65808,0.55359 19.11357,-3.0732 l 9.97303,10.08466 c -0.1483,0.74612 -0.22893,1.51273 -0.22893,2.29392 v 18.08416 c 0,6.65604 5.65643,12.31243 12.31243,12.31243 h 18.08417 c 6.65599,0 12.31243,-5.65639 12.31243,-12.31243 v -18.08416 c 0,-6.65605 -5.65644,-12.31243 -12.31243,-12.31243 h -18.08417 c -0.71667,0 -1.42071,0.069 -2.1084,0.1943 l -11.12645,-11.25047 c 0.23921,-0.62786 0.45407,-1.27045 0.63975,-1.92805 0.41005,-1.45221 0.66696,-2.91457 0.78394,-4.37028 16.29754,0.41017 38.22709,3.57838 52.45933,16.0445 -0.41759,1.2319 -0.64803,2.54038 -0.64803,3.8902 v 19.82412 c 0,6.80331 5.77473,12.57804 12.57805,12.57804 h 19.82411 c 6.80331,0 12.57804,-5.77473 12.57804,-12.57804 v -19.82412 c 0,-6.8033 -5.77473,-12.58011 -12.57804,-12.58011 h -19.82411 c -0.96703,0 -1.91228,0.12025 -2.82412,0.34003 -18.83369,-17.33958 -45.77953,-20.64714 -64.27773,-20.52639 -2.87721,-5.36205 -7.8197,-9.60966 -14.06271,-11.37243 -2.09675,-0.59205 -4.21487,-0.86885 -6.30297,-0.85887 z" /></g><g
         id="g3522"
         style="display:inline"
         transform="translate(-842.03687,-902.98293)"><path
           style="color:#000000;fill:#f7931e;stroke-width:19.7;stroke-linecap:round;stroke-linejoin:round;stroke-miterlimit:10;-inkscape-stroke:none;paint-order:stroke fill markers"
           d="m 169.53335,114.09548 a 14.292564,14.292564 0 0 1 -17.6386,9.87095 14.292564,14.292564 0 0 1 -9.8709,-17.63857 14.292564,14.292564 0 0 1 17.6386,-9.870956 14.292564,14.292564 0 0 1 9.8709,17.638576 z"
           id="path3510" /><path
           style="color:#000000;fill:#f7931e;stroke-width:18.8;stroke-linecap:round;stroke-linejoin:round;stroke-miterlimit:10;-inkscape-stroke:none;paint-order:stroke fill markers"
           d="m 224.13155,102.30257 a 13.754076,13.754076 0 0 1 -16.97399,9.49905 13.754076,13.754076 0 0 1 -9.4991,-16.974025 13.754076,13.754076 0 0 1 16.97404,-9.499046 13.754076,13.754076 0 0 1 9.49905,16.974021 z"
           id="path3512" /><path
           style="color:#000000;fill:#f7931e;stroke-width:18.8;stroke-linecap:round;stroke-linejoin:round;stroke-miterlimit:10;-inkscape-stroke:none;paint-order:stroke fill markers"
           d="m 153.99555,167.69425 a 13.754076,13.754076 0 0 1 -16.974,9.49905 13.754076,13.754076 0 0 1 -9.499,-16.97402 13.754076,13.754076 0 0 1 16.974,-9.49905 13.754076,13.754076 0 0 1 9.499,16.97402 z"
           id="path3514" /><path
           style="color:#000000;fill:#29abe2;stroke-width:19.1;stroke-miterlimit:10;-inkscape-stroke:none;paint-order:stroke fill markers"
           d="m 251.06837,185.81233 v 19.82477 c 0,1.67781 -1.35073,3.02853 -3.02853,3.02853 h -19.82478 c -1.6778,0 -3.02853,-1.35072 -3.02853,-3.02853 v -19.82477 c 0,-1.67781 1.35073,-3.02853 3.02853,-3.02853 h 19.82478 c 1.6778,0 3.02853,1.35072 3.02853,3.02853 z"
           id="path3516" /><path
           style="color:#000000;fill:#29abe2;stroke-width:19.1;stroke-miterlimit:10;-inkscape-stroke:none;paint-order:stroke fill markers"
           d="m 260.87298,133.40153 v 18.08466 c 0,1.53054 -1.23217,2.76271 -2.76271,2.76271 h -18.08466 c -1.53054,0 -2.76271,-1.23217 -2.76271,-2.76271 v -18.08466 c 0,-1.53054 1.23217,-2.76271 2.76271,-2.76271 h 18.08466 c 1.53054,0 2.76271,1.23217 2.76271,2.76271 z"
           id="path3518" /><path
           style="color:#000000;fill:#29abe2;stroke-width:19.1;stroke-miterlimit:10;-inkscape-stroke:none;paint-order:stroke fill markers"
           d="m 196.48456,195.54488 v 18.08467 c 0,1.53054 -1.2322,2.7627 -2.7627,2.7627 h -18.0847 c -1.5305,0 -2.7627,-1.23216 -2.7627,-2.7627 v -18.08467 c 0,-1.53054 1.2322,-2.7627 2.7627,-2.7627 h 18.0847 c 1.5305,0 2.7627,1.23216 2.7627,2.7627 z"
           id="path3520" /></g></g></g></svg>
