<?xml version="1.0" encoding="UTF-8" standalone="no"?>
<!-- Created with Inkscape (http://www.inkscape.org/) -->

<svg
   width="152.8051mm"
   height="150.51924mm"
   viewBox="0 0 152.8051 150.51924"
   version="1.1"
   id="svg1054"
   xmlns="http://www.w3.org/2000/svg"
   xmlns:svg="http://www.w3.org/2000/svg"
   xmlns:rdf="http://www.w3.org/1999/02/22-rdf-syntax-ns#"
   xmlns:cc="http://creativecommons.org/ns#"
   xmlns:dc="http://purl.org/dc/elements/1.1/">
  <title
     id="title242">bipartite_learn icon</title>
  <defs
     id="defs1051" />
  <g
     id="layer1"
     transform="translate(0.95710832,-20.90675)">
    <path
       id="use1248-0-93-7"
       style="color:#000000;fill:#000000;-inkscape-stroke:none"
       d="m 92.30899,20.907011 c -10.06086,0.04811 -19.41947,6.747078 -22.27202,16.849618 -3.4446,12.199289 3.79198,25.130389 15.99127,28.574999 4.40907,1.24495 8.91342,1.09413 13.03124,-0.18138 l 10.31152,10.42572 v 5.1e-4 c -0.15016,0.75064 -0.23203,1.52218 -0.23203,2.30839 v 3.0949 c -2.99548,0.0488 -6.22969,0.006 -9.61491,-0.18293 -14.08069,-0.78625 -30.22678,-4.22626 -41.88789,-13.27051 1.20752,-1.9039 2.16256,-4.00438 2.80242,-6.27042 C 64.03008,49.536358 56.48427,36.052852 43.76467,32.461345 31.04518,28.869837 17.5616,36.415191 13.9701,49.134748 c -3.59149,12.71954 3.95433,26.20305 16.67392,29.79456 6.17615,1.7439 12.53208,0.86186 17.84853,-1.96319 14.80353,12.45088 34.32503,16.21756 50.34576,17.11214 3.61631,0.20193 7.07894,0.24877 10.30066,0.19895 v 2.69338 c 0,6.656042 5.65691,12.312422 12.31295,12.312422 h 18.08365 c 6.65603,0 12.31242,-5.65638 12.31242,-12.312422 v -18.08572 c 0,-6.65604 -5.65639,-12.31243 -12.31242,-12.31243 h -18.08365 c -0.71228,0 -1.41232,0.0684 -2.096,0.19224 l -8.62221,-8.71833 c 1.72537,-2.24493 3.05981,-4.83832 3.86953,-7.70599 3.4446,-12.199293 -3.79199,-25.130395 -15.99127,-28.575001 -2.09676,-0.592042 -4.21487,-0.86833 -6.30298,-0.858346 z M 22.17374,86.299398 c -10.06086,0.0481 -19.41946,6.74709 -22.27203,16.849622 -3.4446,12.1993 3.79199,25.1304 15.99127,28.575 6.71835,1.897 13.65808,0.55359 19.11357,-3.0732 l 9.97303,10.08466 c -0.1483,0.74612 -0.22893,1.51273 -0.22893,2.29392 v 18.08416 c 0,6.65604 5.65643,12.31243 12.31243,12.31243 h 18.08417 c 6.65599,0 12.31243,-5.65639 12.31243,-12.31243 V 141.0294 c 0,-6.65605 -5.65644,-12.31243 -12.31243,-12.31243 H 57.06308 c -0.71667,0 -1.42071,0.069 -2.1084,0.1943 L 43.82823,117.6608 c 0.23921,-0.62786 0.45407,-1.27045 0.63975,-1.92805 0.41005,-1.45221 0.66696,-2.91457 0.78394,-4.37028 16.29754,0.41017 38.22709,3.57838 52.45933,16.0445 -0.41759,1.2319 -0.64803,2.54038 -0.64803,3.8902 v 19.82412 c 0,6.80331 5.77473,12.57804 12.57805,12.57804 h 19.82411 c 6.80331,0 12.57804,-5.77473 12.57804,-12.57804 v -19.82412 c 0,-6.8033 -5.77473,-12.58011 -12.57804,-12.58011 h -19.82411 c -0.96703,0 -1.91228,0.12025 -2.82412,0.34003 C 87.98346,101.71751 61.03762,98.409948 42.53942,98.530698 c -2.87721,-5.36205 -7.8197,-9.60966 -14.06271,-11.37243 -2.09675,-0.59205 -4.21487,-0.86885 -6.30297,-0.85887 z" />
    <path
       style="color:#000000;display:inline;fill:#f7931e;stroke-width:19.7;stroke-linecap:round;stroke-linejoin:round;stroke-miterlimit:10;-inkscape-stroke:none;paint-order:stroke fill markers"
       d="m 50.95909,59.579188 a 14.292564,14.292564 0 0 1 -17.6386,9.87095 14.292564,14.292564 0 0 1 -9.8709,-17.63857 14.292564,14.292564 0 0 1 17.6386,-9.870956 14.292564,14.292564 0 0 1 9.8709,17.638576 z"
       id="path4580" />
    <path
       style="color:#000000;display:inline;fill:#f7931e;stroke-width:18.8;stroke-linecap:round;stroke-linejoin:round;stroke-miterlimit:10;-inkscape-stroke:none;paint-order:stroke fill markers"
       d="m 105.55729,47.786278 a 13.754076,13.754076 0 0 1 -16.97399,9.49905 13.754076,13.754076 0 0 1 -9.4991,-16.974025 13.754076,13.754076 0 0 1 16.97404,-9.499046 13.754076,13.754076 0 0 1 9.49905,16.974021 z"
       id="path4586" />
    <path
       style="color:#000000;display:inline;fill:#f7931e;stroke-width:18.8;stroke-linecap:round;stroke-linejoin:round;stroke-miterlimit:10;-inkscape-stroke:none;paint-order:stroke fill markers"
       d="m 35.42129,113.17796 a 13.754076,13.754076 0 0 1 -16.974,9.49905 13.754076,13.754076 0 0 1 -9.499,-16.97402 13.754076,13.754076 0 0 1 16.974,-9.499052 13.754076,13.754076 0 0 1 9.499,16.974022 z"
       id="path4592" />
    <path
       style="color:#000000;display:inline;fill:#29abe2;stroke-width:19.1;stroke-miterlimit:10;-inkscape-stroke:none;paint-order:stroke fill markers"
       d="m 132.49411,131.29604 v 19.82477 c 0,1.67781 -1.35073,3.02853 -3.02853,3.02853 H 109.6408 c -1.6778,0 -3.02853,-1.35072 -3.02853,-3.02853 v -19.82477 c 0,-1.67781 1.35073,-3.02853 3.02853,-3.02853 h 19.82478 c 1.6778,0 3.02853,1.35072 3.02853,3.02853 z"
       id="path4598" />
    <path
       style="color:#000000;display:inline;fill:#29abe2;stroke-width:19.1;stroke-miterlimit:10;-inkscape-stroke:none;paint-order:stroke fill markers"
       d="m 142.29872,78.885238 v 18.08466 c 0,1.53054 -1.23217,2.76271 -2.76271,2.76271 h -18.08466 c -1.53054,0 -2.76271,-1.23217 -2.76271,-2.76271 v -18.08466 c 0,-1.53054 1.23217,-2.76271 2.76271,-2.76271 h 18.08466 c 1.53054,0 2.76271,1.23217 2.76271,2.76271 z"
       id="path4604" />
    <path
       style="color:#000000;display:inline;fill:#29abe2;stroke-width:19.1;stroke-miterlimit:10;-inkscape-stroke:none;paint-order:stroke fill markers"
       d="m 77.9103,141.02859 v 18.08467 c 0,1.53054 -1.2322,2.7627 -2.7627,2.7627 H 57.0629 c -1.5305,0 -2.7627,-1.23216 -2.7627,-2.7627 v -18.08467 c 0,-1.53054 1.2322,-2.7627 2.7627,-2.7627 h 18.0847 c 1.5305,0 2.7627,1.23216 2.7627,2.7627 z"
       id="path4610" />
  </g>
  <metadata
     id="metadata240">
    <rdf:RDF>
      <cc:Work
         rdf:about="">
        <dc:title>bipartite_learn icon</dc:title>
        <dc:date>April 14, 2023</dc:date>
        <dc:creator>
          <cc:Agent>
            <dc:title>Pedro Ilídio</dc:title>
          </cc:Agent>
        </dc:creator>
        <cc:license
           rdf:resource="http://creativecommons.org/licenses/by-nc-nd/4.0/" />
      </cc:Work>
      <cc:License
         rdf:about="http://creativecommons.org/licenses/by-nc-nd/4.0/">
        <cc:permits
           rdf:resource="http://creativecommons.org/ns#Reproduction" />
        <cc:permits
           rdf:resource="http://creativecommons.org/ns#Distribution" />
        <cc:requires
           rdf:resource="http://creativecommons.org/ns#Notice" />
        <cc:requires
           rdf:resource="http://creativecommons.org/ns#Attribution" />
        <cc:prohibits
           rdf:resource="http://creativecommons.org/ns#CommercialUse" />
      </cc:License>
    </rdf:RDF>
  </metadata>
</svg>
